{"title":"L.Ordre.Et.La.Morale.2011.BRRip.XviD-HORiZON","uid":8406938,"size":1883383136,"categoryP":"video","categoryS":"movies","magnet":"?xt=urn:btih:b941e95e26d663aaf3ef9c3bb2f14e16aeff899d&amp;dn=L.Ordre.Et.La.Morale.2011.BRRip.XviD-HORiZON&amp;tr=udp%3A%2F%2Ftracker.openbittorrent.com%3A80&amp;tr=udp%3A%2F%2Fopen.demonii.com%3A1337&amp;tr=udp%3A%2F%2Ftracker.coppersurfer.tk%3A6969&amp;tr=udp%3A%2F%2Fexodus.desync.com%3A6969","seeders":1,"leechers":1,"uploader":"R0thschild","files":4,"time":1366823747,"description":"-------------------------------------------- &lt;a href=&quot;\nhttp://www.imdb.com/title/tt1242521/&quot; rel=&quot;nofollow&quot; target=&quot;_NEW&quot;&gt;\nhttp://www.imdb.com/title/tt1242521/&lt;/a&gt;\n\n136 min  -  Action | Drama | History  -  16 November 2011 (France)\n7,0 Your rating:    -/10   Ratings: 7,0/10 from 933 users \n\nSUBTiTLES.......: Bulgarian\n\nLanguage : French\n\nFormat                           : AVI\nFormat/Info                      : Audio Video Interleave\nFile size                        : 1.75 GiB\nDuration                         : 2h 14mn\nOverall bit rate                 : 1 866 Kbps\nWriting library                  : The best and REALLY easy backup tool\n\nVideo\nID                               : 0\nFormat                           : MPEG-4 Visual\nFormat profile                   : Advanced Simple@L5\nFormat settings, BVOP            : 1\nFormat settings, QPel            : No\nFormat settings, GMC             : No warppoints\nFormat settings, Matrix          : Default (MPEG)\nMuxing mode                      : Packed bitstream\nCodec ID                         : XVID\nCodec ID/Hint                    : XviD\nDuration                         : 2h 14mn\nBit rate                         : 1 408 Kbps\nWidth                            : 688 pixels\nHeight                           : 288 pixels\nDisplay aspect ratio             : 2.40:1\nFrame rate                       : 23.976 fps\nColor space                      : YUV\nChroma subsampling               : 4:2:0\nBit depth                        : 8 bits\nScan type                        : Progressive\nCompression mode                 : Lossy\nBits/(Pixel*Frame)               : 0.296\nStream size                      : 1.32 GiB (75%)\nWriting library                  : XviD 1.2.0.dev47 (UTC 2006-11-01)\n\nAudio\nID                               : 1\nFormat                           : AC-3\nFormat/Info                      : Audio Coding 3\nMode extension                   : CM (complete main)\nCodec ID                         : 2000\nDuration                         : 2h 14mn\nBit rate mode                    : Constant\nBit rate                         : 448 Kbps\nChannel(s)                       : 6 channels\nChannel positions                : Front: L C R, Side: L R, LFE\nSampling rate                    : 48.0 KHz\nBit depth                        : 16 bits\nCompression mode                 : Lossy\nStream size                      : 431 MiB (24%)\nAlignment                        : Split accross interleaves\nInterleave, duration             : 42 ms (1.00 video frame)\nInterleave, preload duration     : 500 ms\n--------------------------------------------\n\nMore at   &lt;a href=&quot;\nhttp://publichash.com/&quot; rel=&quot;nofollow&quot; target=&quot;_NEW&quot;&gt;\nhttp://publichash.com/&lt;/a&gt;\n\n--------------------------------------------\t","torrent":{"xt":"urn:btih:b941e95e26d663aaf3ef9c3bb2f14e16aeff899d","amp;dn":"L.Ordre.Et.La.Morale.2011.BRRip.XviD-HORiZON","amp;tr":["udp%3A%2F%2Ftracker.openbittorrent.com%3A80","udp%3A%2F%2Fopen.demonii.com%3A1337","udp%3A%2F%2Ftracker.coppersurfer.tk%3A6969","udp%3A%2F%2Fexodus.desync.com%3A6969"],"infoHash":"b941e95e26d663aaf3ef9c3bb2f14e16aeff899d","infoHashBuffer":{"type":"Buffer","data":[185,65,233,94,38,214,99,170,243,239,156,59,178,241,78,22,174,255,137,157]},"announce":[],"urlList":[]}}